<?xml version="1.0" encoding="utf-8"?>
<!-- Svg Vector Icons : http://www.onlinewebfonts.com/icon -->
<!DOCTYPE svg PUBLIC "-//W3C//DTD SVG 1.1//EN" "http://www.w3.org/Graphics/SVG/1.1/DTD/svg11.dtd">
<svg version="1.1" xmlns="http://www.w3.org/2000/svg" xmlns:xlink="http://www.w3.org/1999/xlink" x="0px" y="0px" viewBox="0 0 1000 1000" enable-background="new 0 0 1000 1000" xml:space="preserve">
<metadata> Svg Vector Icons : http://www.onlinewebfonts.com/icon </metadata>
<g><path d="M500,10C236.3,10,22.5,197.1,22.5,427.8c0,131.9,54,251,163.1,327.6V965c0,0,31.3,32.6,46.6,23.3c55.5-33.7,178.6-150.2,178.6-150.2c28.9,4.8,58.7,7.6,89.3,7.6c263.7,0,477.5-187.1,477.5-417.8C977.5,197.1,763.7,10,500,10z M239.1,522.4c-42.4,0-76.9-36.5-76.9-81.5c0-45,34.4-81.5,76.9-81.5c42.4,0,76.9,36.5,76.9,81.5C316,486,281.6,522.4,239.1,522.4z M500,522.4c-42.4,0-76.9-36.5-76.9-81.5c0-45,34.4-81.5,76.9-81.5s76.9,36.5,76.9,81.5C576.9,486,542.4,522.4,500,522.4z M760.9,522.4c-42.4,0-76.9-36.5-76.9-81.5c0-45,34.4-81.5,76.9-81.5c42.5,0,76.9,36.5,76.9,81.5C837.8,486,803.3,522.4,760.9,522.4z" style="fill:#95e1d3"/></g>
</svg>