<?xml version="1.0" encoding="utf-8"?>
<!-- Svg Vector Icons : http://www.onlinewebfonts.com/icon -->
<!DOCTYPE svg PUBLIC "-//W3C//DTD SVG 1.1//EN" "http://www.w3.org/Graphics/SVG/1.1/DTD/svg11.dtd">
<svg version="1.1" xmlns="http://www.w3.org/2000/svg" xmlns:xlink="http://www.w3.org/1999/xlink" x="0px" y="0px" viewBox="0 0 1000 1000" enable-background="new 0 0 1000 1000" xml:space="preserve">
<metadata> Svg Vector Icons : http://www.onlinewebfonts.com/icon </metadata>
<g><path d="M561.3,71.3c0-33.7-27.6-61.3-61.3-61.3s-61.3,27.6-61.3,61.3v551.3h-61.3V745h61.3v183.8c0,33.7,27.6,61.3,61.3,61.3s61.3-27.6,61.3-61.3V745h61.3V622.5h-61.3V71.3z M193.8,71.3c0-33.7-27.6-61.3-61.3-61.3S71.3,37.6,71.3,71.3v306.3H10V500h61.3v428.8c0,33.7,27.6,61.3,61.3,61.3s61.3-27.6,61.3-61.3V500H255V377.5h-61.3V71.3z M990,255h-61.3V71.3c0-33.7-27.6-61.3-61.3-61.3s-61.3,27.6-61.3,61.3V255H745v122.5h61.3v551.3c0,33.7,27.6,61.3,61.3,61.3s61.3-27.6,61.3-61.3V377.5H990V255z" style="fill:#95e1d3"/></g>
</svg>