<?xml version="1.0" encoding="utf-8"?>
<!-- Svg Vector Icons : http://www.onlinewebfonts.com/icon -->
<!DOCTYPE svg PUBLIC "-//W3C//DTD SVG 1.1//EN" "http://www.w3.org/Graphics/SVG/1.1/DTD/svg11.dtd">
<svg version="1.1" xmlns="http://www.w3.org/2000/svg" xmlns:xlink="http://www.w3.org/1999/xlink" x="0px" y="0px" viewBox="0 0 1000 1000" enable-background="new 0 0 1000 1000" xml:space="preserve">
<metadata> Svg Vector Icons : http://www.onlinewebfonts.com/icon </metadata>
<g><path d="M10,481.2v37.7c226.1,376.9,753.9,376.9,980,0v-37.7C763.9,104.3,236.1,104.3,10,481.2z M500,726.2c-125,0-226.1-101.3-226.1-226.2c0-125,101.1-226,226.1-226c124.8,0,226.2,101.1,226.2,226C726.2,624.9,624.8,726.2,500,726.2z" style="fill:#95e1d3"/><path d="M386.9,499.9c0,62.4,50.6,113.1,113.1,113.1s113.1-50.6,113.1-113.1c0-62.4-50.6-113-113.1-113S386.9,437.5,386.9,499.9z" style="fill:#95e1d3"/></g>
</svg>