<?xml version="1.0" encoding="utf-8"?>
<!-- Svg Vector Icons : http://www.onlinewebfonts.com/icon -->
<!DOCTYPE svg PUBLIC "-//W3C//DTD SVG 1.1//EN" "http://www.w3.org/Graphics/SVG/1.1/DTD/svg11.dtd">
<svg version="1.1" xmlns="http://www.w3.org/2000/svg" xmlns:xlink="http://www.w3.org/1999/xlink" x="0px" y="0px" viewBox="0 0 1000 1000" enable-background="new 0 0 1000 1000" xml:space="preserve">
<metadata> Svg Vector Icons : http://www.onlinewebfonts.com/icon </metadata>
<g><path d="M500,10c-203,0-367.5,164.5-367.5,367.5C132.5,580.5,500,990,500,990s367.5-409.5,367.5-612.5C867.5,174.5,703,10,500,10z M501.9,620.6c-135.3,0-245-109.7-245-245c0-135.3,109.7-245,245-245c135.3,0,245,109.7,245,245C746.9,510.9,637.2,620.6,501.9,620.6z M501.9,226.3c-84.6,0-153.1,68.5-153.1,153.1c0,84.6,68.5,153.1,153.1,153.1c84.5,0,153.1-68.5,153.1-153.1C655,294.8,586.5,226.3,501.9,226.3z" style="fill:#f38181"/></g>
</svg>