<?xml version="1.0" encoding="utf-8"?>
<!-- Svg Vector Icons : http://www.onlinewebfonts.com/icon -->
<!DOCTYPE svg PUBLIC "-//W3C//DTD SVG 1.1//EN" "http://www.w3.org/Graphics/SVG/1.1/DTD/svg11.dtd">
<svg version="1.1" xmlns="http://www.w3.org/2000/svg" xmlns:xlink="http://www.w3.org/1999/xlink" x="0px" y="0px" viewBox="0 0 1000 1000" enable-background="new 0 0 1000 1000" xml:space="preserve">
<metadata> Svg Vector Icons : http://www.onlinewebfonts.com/icon </metadata>
<g><path d="M437.9,646.3c-8.1,31.8-16.3,65.2-24.9,97.8c-8.4,32.2-15.7,64.8-27.9,94.3c-20.2,48.9-45.9,96.2-79.5,134.5c-22.3,25.5-17.6,15.3-24.4,13.9c-5.1-1.1-5.6-6-6.6-13.2c-5.5-39-1.7-83.9,0.3-127.6c2.3-49.8,13-91.2,22.9-132.6c18.9-78.8,36.8-156,55.9-235.4c1.3-5.3,4.7-14,3.5-17c-8.6-22.1-14.2-41.9-16.7-64.9c-2.8-26.6-0.7-51.4,5.4-74.2c10.7-40.4,35.5-76.3,73.7-89.3c24.3-8.3,51.2-4.5,67.5,5c16.8,9.8,28.4,25.4,33.7,47.6c5.8,23.5,1.5,51.6-3.1,72.3c-10.4,46.5-24.1,81.4-36.5,126.4c-6.1,22.3-13.1,45.1-7.4,69.2c5.3,22.1,17,37.3,33,48.7c16.5,11.8,36.2,18.3,63.2,17.4c47.8-1.6,81-31.6,103.2-59.9c35.5-45.2,57-106.3,65.2-178.9c2.6-23.4,4.6-50.3,2.7-76.9c-3.4-49-19-88.5-43.8-119.1c-23.6-29.1-57.1-52.3-97.7-65.3c-40.4-12.9-96.2-17.2-145.9-8.9C363.7,125.3,300,175.6,262.6,245c-19.6,36.4-32.6,78.2-32.6,130.3c0,40.1,10.1,71.2,26.4,95.5c5.1,7.7,12.8,14,17.8,22.8c7.2,12.4-1.1,31-4.7,44.4c-4.3,16.3-4.7,38.7-24.1,39c-8,0.2-25.6-10.3-31.8-14.9c-39.5-29.4-55.1-49.6-75-97.8c-15.4-37.2-22.6-107.1-14.9-145.3c7.4-36.9,23.9-88.5,39.2-116.1C194.6,145.5,241,99.6,297.5,66.8C341,41.7,390,23.9,449.6,15.4c19.8-2.9,40.2-4,62.4-5C577,7.4,636,21.8,680.4,41.3c46.9,20.6,84.3,48,116,82c32.6,34.9,56.3,75.6,71.4,126.4c7.9,26.4,11.6,56.2,11.6,88.8c0,32.7-3.2,60.1-8.1,89c-18.4,108-70.8,196.3-149.4,246.6c-19,12.2-42.1,23.4-68.3,30.9c-25.9,7.5-55.6,13-87.3,10.8c-30.8-2.1-56-10.3-77.2-22C468,682.2,450.4,667.9,437.9,646.3L437.9,646.3z" style="fill:#f38181"/></g>
</svg>