<?xml version="1.0" encoding="utf-8"?>
<!-- Svg Vector Icons : http://www.onlinewebfonts.com/icon -->
<!DOCTYPE svg PUBLIC "-//W3C//DTD SVG 1.1//EN" "http://www.w3.org/Graphics/SVG/1.1/DTD/svg11.dtd">
<svg version="1.1" xmlns="http://www.w3.org/2000/svg" xmlns:xlink="http://www.w3.org/1999/xlink" x="0px" y="0px" viewBox="0 0 1000 1000" enable-background="new 0 0 1000 1000" xml:space="preserve">
<metadata> Svg Vector Icons : http://www.onlinewebfonts.com/icon </metadata>
<g><path d="M500,115c212.3,0,385,172.7,385,385c0,212.3-172.7,385-385,385c-212.3,0-385-172.7-385-385C115,287.7,287.7,115,500,115 M500,10C229.4,10,10,229.4,10,500c0,270.6,219.4,490,490,490c270.6,0,490-219.4,490-490C990,229.4,770.6,10,500,10L500,10z" style="fill:#95e1d3"/><path d="M500,325c96.5,0,175,78.5,175,175c0,96.5-78.5,175-175,175s-175-78.5-175-175C325,403.5,403.5,325,500,325 M500,220c-154.6,0-280,125.4-280,280c0,154.6,125.4,280,280,280c154.6,0,280-125.4,280-280C780,345.4,654.6,220,500,220L500,220z" style="fill:#95e1d3"/><path d="M570,500c0,38.7-31.3,70-70,70c-38.7,0-70-31.3-70-70c0-38.7,31.3-70,70-70C538.7,430,570,461.3,570,500z" style="fill:#95e1d3"/></g>
</svg>