<?xml version="1.0" encoding="utf-8"?>
<!-- Svg Vector Icons : http://www.onlinewebfonts.com/icon -->
<!DOCTYPE svg PUBLIC "-//W3C//DTD SVG 1.1//EN" "http://www.w3.org/Graphics/SVG/1.1/DTD/svg11.dtd">
<svg version="1.1" xmlns="http://www.w3.org/2000/svg" xmlns:xlink="http://www.w3.org/1999/xlink" x="0px" y="0px" viewBox="0 0 1000 1000" enable-background="new 0 0 1000 1000" xml:space="preserve">
<metadata> Svg Vector Icons : http://www.onlinewebfonts.com/icon </metadata>
<g><path d="M870.3,650.6c-90.6-34.3-85.1-20.6-85.1-84.2c0-41.1,20.3-26,33.3-104.3c5-30.8,9.2-10.3,19.9-59.7c5.7-25.8-3.9-27.8-2.6-40c1.1-12.3,2.2-23.4,4.4-48.6c2.6-31.5-25.4-113.8-125.6-113.8S586.4,282.2,589,313.7c2,25.4,3.3,36.3,4.4,48.6c1.1,12.3-8.3,14.2-2.6,40c10.7,49.4,14.9,28.7,19.9,59.7c12.9,78.3,33,63.4,33,104.3c0,29.3,6.8,41.6-32.6,60.2c11.8,4.2,25.6,9.2,42.2,15.5c119,45.3,116.2,89.3,119.2,110c2.2,14.2,3.3,127.5,3.7,168H990c0,0,0-176.1-3.3-196.7C984.3,707.3,962.7,685.8,870.3,650.6z" style="fill:#fff"/><path d="M720.9,920.1c0,0,0-30.8-0.4-66.5c-0.4-40.7-1.5-87.5-3.7-101.5c-3.3-20.8-31.3-48.6-150.1-93.8c-16.4-6.1-30.2-11.2-42.2-15.5c-72.8-25.8-67.6-34.3-67.6-105c0-53.2,26.3-18.6,42.9-119.4c6.6-39.8,11.8-13.3,25.6-77c7.4-33.3-5-35.9-3.5-51.8c1.5-16,3.1-30.2,5.7-62.8c3.5-40.5-32.6-146.8-162.1-146.8S200.1,186,203.4,226.7c2.6,32.6,4.2,46.8,5.9,62.8c1.5,16-10.9,18.4-3.5,51.8c14,63.7,19.3,37.2,25.8,77c16.6,100.8,42.7,66.3,42.7,119.4c0,82.3,7.2,76.1-109.8,120.5C45.7,703.5,17.7,731.3,14.4,752.1c-4.4,26.5-4.4,168-4.4,168h355.5H720.9z"  style="fill:#fff"/></g>
</svg>